<?xml version="1.0" encoding="utf-8"?><!DOCTYPE svg PUBLIC "-//W3C//DTD SVG 1.1//EN" "http://www.w3.org/Graphics/SVG/1.1/DTD/svg11.dtd"><svg xmlns="http://www.w3.org/2000/svg" xmlns:xlink="http://www.w3.org/1999/xlink"><symbol viewBox="0 0 512 512" id="map-marker-1" xmlns="http://www.w3.org/2000/svg"><path d="M256 0C167.641 0 96 71.625 96 160c0 24.75 5.625 48.219 15.672 69.125C112.234 230.313 256 512 256 512l142.594-279.375C409.719 210.844 416 186.156 416 160 416 71.625 344.375 0 256 0zm0 256c-53.016 0-96-43-96-96s42.984-96 96-96c53 0 96 43 96 96s-43 96-96 96z"/></symbol><symbol viewBox="0 0 512 512" id="pencil" xmlns="http://www.w3.org/2000/svg"><g fill="#020202"><path d="M422.953 176.019c.549-.48 1.09-.975 1.612-1.498l21.772-21.772c12.883-12.883 12.883-33.771 0-46.654l-40.434-40.434c-12.883-12.883-33.771-12.883-46.653 0l-21.772 21.772a32.839 32.839 0 0 0-1.498 1.613l86.973 86.973zM114.317 397.684l43 43-50.659 7.658L56 456l7.658-50.659 7.658-50.658zM349.143 125.535L118.982 355.694l-12.441-12.441 230.16-230.159-12.441-12.441-242.601 242.6 87.088 87.088L411.348 187.74z"/></g></symbol><symbol viewBox="0 0 512 512" id="rocket" xmlns="http://www.w3.org/2000/svg"><path fill="#020202" d="M204.192 62.194c14.147-20.472 29.339-41.613 50.963-54.72 21.323 12.782 36.366 33.547 50.311 53.656 32.847 49.754 52.929 109.515 48.878 169.578 10.615 8.898 21.537 17.441 31.994 26.521 15.011 13.797 22.02 35.319 18.406 55.327-5.036 25.275-9.876 50.607-15.206 75.813-2.963 12.968-20.508 18.905-30.823 10.62-17.121-14.291-33.816-29.108-50.932-43.417-12.95 12.462-30.153 20.772-48.214 21.773-20.791 1.466-41.375-7.156-56.448-21.242-12.28 9.401-23.666 20.686-35.664 30.755-5.799 4.66-10.621 10.784-17.484 13.966-10.64 4.565-24.342-2.248-26.747-13.685-5.479-24.642-11.203-49.24-16.52-73.92-4.321-20.878 3.332-43.61 19.419-57.607 9.313-7.822 18.756-15.487 28.243-23.096 2.643-1.39 1.315-4.596 1.465-6.951-2.828-57.951 16.967-115.232 48.359-163.371zm16.803 76.332c-12.424 15.994-10.921 40.768 3.488 55.052 15.255 16.809 44.15 17.422 60.106 1.29 12.317-11.253 16.482-30.146 10.603-45.671-5.387-14.967-19.809-26.195-35.671-27.591-14.648-1.686-29.815 5.053-38.526 16.92z"/><path fill="#020202" d="M198.263 407.819c-.213-7.266 8.83-12.262 14.942-8.417 25.87 13.32 58.027 13.314 83.896-.007 5.937-3.645 14.736.733 14.955 7.803.087 15.432.105 30.88.024 46.317.119 7.533-9.832 12.337-15.681 7.626-4.452-3.926-8.467-8.341-12.75-12.461-6.776 13.201-13.163 26.602-19.995 39.772-3.281 6.275-13.533 6.318-16.877.105-6.87-13.195-13.213-26.676-20.121-39.858-4.221 4.157-8.248 8.548-12.694 12.468-5.824 4.734-15.756-.162-15.675-7.647-.124-15.229-.043-30.465-.024-45.701z"/><circle fill="#020202" cx="254.831" cy="164.509" r="20.812"/></symbol><symbol viewBox="0 0 67.733 4.233" id="search" xmlns="http://www.w3.org/2000/svg"><path fill-rule="evenodd" opacity=".6" fill="#49473F" d="M0 0h1920v119.999H0V0z"/></symbol><symbol viewBox="0 0 512 512" id="signal" xmlns="http://www.w3.org/2000/svg"><path d="M-612 320v96h96v-96h-96zm83 83h-70v-70h70v70z"/><path fill="#020202" d="M233.503 70.369c93.726-6.75 189.622 28.317 256.515 94.363 8.765 9.023 7.622 24.807-1.625 33.076-8.493 10.012-25.501 10.189-34.266.436-57.224-55.091-138.018-84.881-217.35-78.956-65.905 4.24-129.749 32.628-177.572 78.096-4.253 4.347-9.684 7.916-15.938 8.222-15.666 1.837-30.154-14.536-26.773-29.86.954-5.501 4.487-10.083 8.527-13.747 55.988-53.607 131.151-86.53 208.482-91.63z"/><path fill="#020202" d="M231.183 162.282c71.806-7.81 146.369 18.658 197.183 69.968 7.939 9.07 6.95 23.901-1.872 32.052-8.046 9.847-24.265 10.953-33.383 2.024-32.534-32.074-76.518-52.44-122.126-55.774-55.387-4.594-111.974 16.42-151.411 55.445-9.094 9.612-26.033 8.518-34.218-1.708-8.823-8.327-9.553-23.559-1.084-32.381 39.084-39.106 91.937-63.984 146.911-69.626z"/><path fill="#020202" d="M241.796 252.97c45.314-4.499 92.161 12.852 123.693 45.669 8.634 8.987 7.634 24.454-1.461 32.77-8.257 9.966-24.807 10.638-33.782 1.296-17.774-18.245-42.394-29.778-67.884-31.168-28.929-2.062-58.201 9.365-78.744 29.695-5.053 5.679-12.557 9.165-20.237 8.259-17.833-1.25-30.213-25.056-17.928-39.344 24.807-26.904 60.039-43.572 96.343-47.177z"/><path fill="#020202" d="M248.781 337.651c29.201-4.9 58.837 19.213 59.78 48.824 2.709 29.036-22.923 56.589-52.063 55.951-26.197.908-50.475-20.825-52.772-46.88-3.735-27.352 17.656-54.738 45.055-57.895z"/></symbol><symbol viewBox="0 0 512 512" id="user1" xmlns="http://www.w3.org/2000/svg"><text transform="translate(168.783 543.81)"><tspan x="0" y="0" fill="#FF0" font-family="'Verdana-Bold'" font-size="20">simpleicon.com</tspan><tspan x="-159.59" y="24" fill="#FF0" font-family="'Verdana'" font-size="20">Collection Of Flat Icon, Symbols And Glyph Icons</tspan></text><path fill="#020201" d="M454.426 392.582c-5.439-16.32-15.298-32.782-29.839-42.362-27.979-18.572-60.578-28.479-92.099-39.085-7.604-2.664-15.33-5.568-22.279-9.7-6.204-3.686-8.533-11.246-9.974-17.886-.636-3.512-1.026-7.116-1.228-10.661 22.857-31.267 38.019-82.295 38.019-124.136 0-65.298-36.896-83.495-82.402-83.495-45.515 0-82.403 18.17-82.403 83.468 0 43.338 16.255 96.5 40.489 127.383-.221 2.438-.511 4.876-.95 7.303-1.444 6.639-3.77 14.058-9.97 17.743-6.957 4.133-14.682 6.756-22.287 9.42-31.521 10.605-64.119 19.957-92.091 38.529-14.549 9.58-24.403 27.159-29.838 43.479-5.597 16.938-7.886 37.917-7.541 54.917h411.932c.348-16.999-1.946-37.978-7.539-54.917z"/></symbol></svg>