<?xml version="1.0" encoding="utf-8"?><!DOCTYPE svg PUBLIC "-//W3C//DTD SVG 1.1//EN" "http://www.w3.org/Graphics/SVG/1.1/DTD/svg11.dtd"><svg xmlns="http://www.w3.org/2000/svg" width="52" height="52" viewBox="-160 -160 832 832"><text transform="translate(168.783 543.81)"><tspan x="0" y="0" fill="#FF0" font-family="'Verdana-Bold'" font-size="20">simpleicon.com</tspan><tspan x="-159.59" y="24" fill="#FF0" font-family="'Verdana'" font-size="20">Collection Of Flat Icon, Symbols And Glyph Icons</tspan></text><path fill="#020201" d="M454.426 392.582c-5.439-16.32-15.298-32.782-29.839-42.362-27.979-18.572-60.578-28.479-92.099-39.085-7.604-2.664-15.33-5.568-22.279-9.7-6.204-3.686-8.533-11.246-9.974-17.886-.636-3.512-1.026-7.116-1.228-10.661 22.857-31.267 38.019-82.295 38.019-124.136 0-65.298-36.896-83.495-82.402-83.495-45.515 0-82.403 18.17-82.403 83.468 0 43.338 16.255 96.5 40.489 127.383-.221 2.438-.511 4.876-.95 7.303-1.444 6.639-3.77 14.058-9.97 17.743-6.957 4.133-14.682 6.756-22.287 9.42-31.521 10.605-64.119 19.957-92.091 38.529-14.549 9.58-24.403 27.159-29.838 43.479-5.597 16.938-7.886 37.917-7.541 54.917h411.932c.348-16.999-1.946-37.978-7.539-54.917z"/></svg>